HIERARCHY
ROOT Hips
{
 OFFSET 0.000000 0.000000 0.000000
 CHANNELS 6 Xposition Yposition Zposition Yrotation Xrotation Zrotation
 JOINT Chest
 {
  OFFSET 0.000000 9.581000 -0.001100
  CHANNELS 3 Yrotation Xrotation Zrotation
  JOINT Chest2
  {
   OFFSET 0.000000 9.561100 0.002200
   CHANNELS 3 Yrotation Xrotation Zrotation
   JOINT Chest3
   {
    OFFSET 0.000000 9.521100 0.000000
    CHANNELS 3 Yrotation Xrotation Zrotation
    JOINT Chest4
    {
     OFFSET 0.000000 9.511400 0.000000
     CHANNELS 3 Yrotation Xrotation Zrotation
     JOINT Neck
     {
      OFFSET 0.000000 14.375100 0.000000
      CHANNELS 3 Yrotation Xrotation Zrotation
      JOINT Head
      {
       OFFSET 0.000000 8.901200 0.004600
       CHANNELS 3 Yrotation Xrotation Zrotation
       End Site
       {
        OFFSET 0.000000 16.962200 0.002400
       }
      }
     }
     JOINT RightCollar
     {
      OFFSET -2.920100 9.518800 0.000000
      CHANNELS 3 Yrotation Xrotation Zrotation
      JOINT RightShoulder
      {
       OFFSET -13.664500 0.000000 0.000000
       CHANNELS 3 Yrotation Xrotation Zrotation
       JOINT RightElbow
       {
        OFFSET 0.000000 -29.999200 0.000000
        CHANNELS 3 Yrotation Xrotation Zrotation
        JOINT RightWrist
        {
         OFFSET 0.000000 -24.253600 0.000000
         CHANNELS 3 Yrotation Xrotation Zrotation
         End Site
         {
          OFFSET 0.000000 -17.918900 0.000000
         }
        }
       }
      }
     }
     JOINT LeftCollar
     {
      OFFSET 2.920100 9.518800 0.000000
      CHANNELS 3 Yrotation Xrotation Zrotation
      JOINT LeftShoulder
      {
       OFFSET 13.664500 0.000000 0.000000
       CHANNELS 3 Yrotation Xrotation Zrotation
       JOINT LeftElbow
       {
        OFFSET 0.000000 -29.999200 0.000000
        CHANNELS 3 Yrotation Xrotation Zrotation
        JOINT LeftWrist
        {
         OFFSET 0.000000 -24.253600 0.000000
         CHANNELS 3 Yrotation Xrotation Zrotation
         End Site
         {
          OFFSET 0.000000 -17.918900 0.000000
         }
        }
       }
      }
     }
    }
   }
  }
 }
 JOINT RightHip
 {
  OFFSET -7.797300 0.005300 0.000500
  CHANNELS 3 Yrotation Xrotation Zrotation
  JOINT RightKnee
  {
   OFFSET 0.000000 -40.663400 -0.000500
   CHANNELS 3 Yrotation Xrotation Zrotation
   JOINT RightAnkle
   {
    OFFSET 0.000000 -39.523700 -0.000900
    CHANNELS 3 Yrotation Xrotation Zrotation
    JOINT RightToe
    {
     OFFSET 0.000000 -6.418000 14.485300
     CHANNELS 3 Yrotation Xrotation Zrotation
     End Site
     {
      OFFSET 0.000000 -1.465200 6.326400
     }
    }
   }
  }
 }
 JOINT LeftHip
 {
  OFFSET 7.797300 0.005300 0.000500
  CHANNELS 3 Yrotation Xrotation Zrotation
  JOINT LeftKnee
  {
   OFFSET 0.000000 -40.663400 -0.000500
   CHANNELS 3 Yrotation Xrotation Zrotation
   JOINT LeftAnkle
   {
    OFFSET 0.000000 -39.523700 -0.000900
    CHANNELS 3 Yrotation Xrotation Zrotation
    JOINT LeftToe
    {
     OFFSET 0.000000 -6.418000 14.485300
     CHANNELS 3 Yrotation Xrotation Zrotation
     End Site
     {
      OFFSET 0.000000 -1.465200 6.326400
     }
    }
   }
  }
 }
}
MOTION
Frames: 7
Frame Time: 0.008333
0.000000 86.422400 0.000000 0.000000 -5.767877 0.000000 0.000000 11.653817 0.000000 0.000000 -5.885947 0.000000 0.000000 -0.000000 0.000000 0.000000 -0.000000 0.000000 0.000000 12.528835 0.000000 0.000000 0.711642 0.000000 0.000000 -0.000000 0.000000 0.000000 0.000000 -90.000000 0.000000 -2.309062 0.000000 0.000000 2.309062 0.000000 0.000000 -0.000000 0.000000 0.000000 -0.000000 90.000000 0.000000 -2.309062 0.000000 0.000000 2.309062 0.000000 0.000000 8.520406 0.000000 0.000000 1.905762 0.000000 -0.000000 -4.658285 0.000000 0.000000 -0.000000 0.000000 0.000000 8.520406 0.000000 0.000000 1.905762 0.000000 -0.000000 -4.658285 0.000000 0.000000 -0.000000 0.000000
-15.448186 126.906564 19.658658 -169.838822 -49.083779 -5.018535 -0.450710 25.679005 1.046413 -0.100759 4.176835 0.182887 -0.158700 6.660173 0.284279 -0.401834 21.179756 0.866473 2.931071 19.942921 0.741168 2.952760 -4.564523 0.119820 5.647245 1.076754 4.263659 -12.053864 -30.752686 -26.163555 -105.739861 -54.784697 144.448780 -14.653426 9.594505 -23.337986 -8.067855 -0.984355 -0.503096 -1.872335 -5.972778 9.203339 25.962403 -69.580758 -59.697146 -6.584140 -8.208441 18.217371 -5.345671 -23.231103 0.254547 -7.925595 76.688380 -5.999528 9.283563 -11.552870 1.135543 -0.000232 0.005549 -0.000103 1.504006 -20.673921 -3.707087 50.393693 81.712092 53.263855 5.976399 -13.247417 2.331013 -0.000190 0.000036 -0.000084
-15.448300 126.906442 19.658691 -169.841422 -49.080936 -5.012073 -0.448384 25.678259 1.045105 -0.101005 4.174107 0.184881 -0.158468 6.659256 0.284651 -0.405372 21.180980 0.863264 2.880143 19.876199 0.729930 2.894986 -4.639366 0.117000 5.646389 1.066596 4.261119 -12.059438 -30.733961 -26.153833 -105.754407 -54.792897 144.468130 -14.627358 9.613421 -23.310558 -8.073103 -0.991158 -0.496624 -1.865421 -5.973978 9.203314 26.036742 -69.533103 -59.794010 -6.453385 -8.234360 18.153386 -5.342343 -23.224577 0.249703 -7.971170 76.694753 -6.040710 9.302344 -11.662128 1.108379 0.000808 0.001177 0.000358 1.506447 -20.677444 -3.712317 50.399308 81.713593 53.271029 5.974604 -13.247686 2.327313 -0.002218 0.000135 -0.000983
-15.447797 126.906574 19.658459 -169.843635 -49.079914 -5.008995 -0.443236 25.675847 1.055074 -0.102851 4.173677 0.180525 -0.158591 6.658571 0.283566 -0.405470 21.181331 0.865716 2.840708 19.827659 0.717185 2.834565 -4.728654 0.113465 5.637766 1.058870 4.256002 -12.070434 -30.709594 -26.129293 -105.780515 -54.809997 144.509854 -14.607416 9.624963 -23.290515 -8.078706 -0.996266 -0.496420 -1.858411 -5.995650 9.222424 26.128697 -69.462314 -59.914095 -6.348934 -8.254901 18.097963 -5.339728 -23.221632 0.248404 -8.028568 76.705410 -6.093705 9.319784 -11.753395 1.087160 0.001144 -0.000840 0.000507 1.504897 -20.680230 -3.705968 50.390571 81.722521 53.259352 5.971622 -13.248556 2.325101 -0.000673 0.000377 -0.000298
-15.447853 126.906540 19.658449 -169.845325 -49.077691 -5.002230 -0.445260 25.673206 1.053676 -0.101598 4.173182 0.178387 -0.158828 6.658433 0.282342 -0.399096 21.176358 0.870766 2.794156 19.766821 0.705151 2.790081 -4.800098 0.108767 5.625345 1.046073 4.254861 -12.067467 -30.687386 -26.125003 -105.795461 -54.834144 144.529351 -14.612543 9.618197 -23.282368 -8.093282 -1.002783 -0.492782 -1.849192 -5.992105 9.220259 26.242082 -69.401141 -60.071174 -6.301286 -8.264144 18.074883 -5.331279 -23.223553 0.242384 -8.081572 76.719584 -6.138085 9.320056 -11.842008 1.066577 0.000291 -0.003826 0.000129 1.506403 -20.681233 -3.706690 50.414583 81.721509 53.282554 5.966699 -13.253058 2.318854 0.001634 0.002031 0.000724
-15.447785 126.906421 19.658500 -169.852461 -49.075627 -4.991575 -0.446766 25.670380 1.050129 -0.098422 4.172950 0.177173 -0.157727 6.656613 0.285134 -0.397143 21.174731 0.871518 2.744683 19.687869 0.691852 2.762268 -4.853832 0.102499 5.619040 1.047301 4.251598 -12.066744 -30.683131 -26.122318 -105.801741 -54.840900 144.536268 -14.586457 9.650887 -23.254264 -8.100972 -1.012834 -0.488798 -1.843282 -5.987333 9.216358 26.421993 -69.332568 -60.310987 -6.308982 -8.248652 18.076701 -5.323864 -23.225637 0.238386 -8.107840 76.732048 -6.162372 9.319772 -11.924304 1.048514 -0.000423 -0.004765 -0.000188 1.511975 -20.683073 -3.709060 50.416741 81.721493 53.283369 5.966909 -13.254177 2.316283 0.001286 0.002292 0.000570
-15.446995 126.906097 19.658757 -169.862575 -49.071851 -4.982539 -0.443226 25.665778 1.049294 -0.102980 4.169599 0.183760 -0.157851 6.653335 0.285814 -0.396512 21.176291 0.867707 2.714880 19.627560 0.678741 2.732848 -4.922465 0.095534 5.617026 1.039131 4.246476 -12.061711 -30.662819 -26.113219 -105.822768 -54.857415 144.554189 -14.533683 9.710061 -23.200197 -8.108623 -1.022346 -0.486691 -1.824587 -6.001800 9.213840 26.434568 -69.297518 -60.348481 -6.269582 -8.254552 18.039962 -5.317393 -23.237126 0.237489 -8.128933 76.749324 -6.183133 9.325810 -11.969568 1.038979 -0.000611 -0.002407 -0.000271 1.517668 -20.687373 -3.707288 50.420690 81.721622 53.286559 5.967364 -13.254395 2.312644 0.000966 0.002019 0.000428
